<?xml version="1.0" standalone="no"?>
<!DOCTYPE svg PUBLIC "-//W3C//DTD SVG 1.1//EN" "http://www.w3.org/Graphics/SVG/1.1/DTD/svg11.dtd" >
<svg xmlns="http://www.w3.org/2000/svg" xmlns:xlink="http://www.w3.org/1999/xlink" version="1.1">
<metadata></metadata>
<defs>
<font id="hurmegeometricsanuploadedfile" horiz-adv-x="1671" >
<font-face units-per-em="2048" ascent="1565" descent="-483" />
<missing-glyph horiz-adv-x="833" />
<glyph unicode="&#xfb01;" horiz-adv-x="1122" d="M55 809v223h170v51q0 119 27 188.5t86 114.5q94 70 295 70q106 0 168 -10v-209q-53 10 -137 10q-106 0 -154.5 -33.5t-48.5 -111.5v-70h553v-1032h-244v809h-307v-809h-238v809h-170z" />
<glyph unicode="&#xfb02;" horiz-adv-x="1181" d="M55 809v223h168v51q0 119 26.5 188.5t86.5 117.5q82 68 256 67q61 0 106 -8v-211q-29 10 -94 10q-76 0 -109.5 -33.5t-33.5 -111.5v-70h203v-223h-203v-809h-238v809h-168zM827 0v1427h246v-1427h-246z" />
<glyph unicode="&#xfb03;" horiz-adv-x="1667" d="M55 809v223h168v51q0 113 30 190t84 114.5t112.5 53t134.5 15.5q63 0 104 -8v-211q-27 10 -88 10q-74 0 -107.5 -33.5t-33.5 -111.5v-70h317v51q0 215 113 303q94 70 297 70q104 0 166 -10v-209q-53 10 -135 10q-106 0 -154.5 -33.5t-48.5 -111.5v-70h551v-1032h-244v809 h-307v-809h-238v809h-315v-809h-238v809h-168z" />
<glyph unicode="&#xfb04;" horiz-adv-x="1703" d="M55 809v223h168v51q0 113 30 190t84 114.5t112.5 53t134.5 15.5q63 0 104 -8v-211q-27 10 -88 10q-74 0 -107.5 -33.5t-33.5 -111.5v-70h317v51q0 90 20.5 158t54.5 109t84 65.5t99 32.5t111 8q63 0 104 -8v-211q-27 10 -92 10q-76 0 -110.5 -33.5t-34.5 -111.5v-70h205 v-223h-203v-809h-238v809h-315v-809h-238v809h-168zM1360 0v1427h235v-1427h-235z" />
<glyph horiz-adv-x="0" />
<glyph horiz-adv-x="0" />
<glyph horiz-adv-x="682" />
<glyph unicode="&#xd;" horiz-adv-x="681" />
<glyph unicode=" "  horiz-adv-x="833" />
<glyph unicode="&#x09;" horiz-adv-x="833" />
<glyph unicode="&#xa0;" horiz-adv-x="833" />
<glyph unicode="!" horiz-adv-x="552" d="M127 1427h297l-43 -1067h-211zM135 114.5q0 59.5 42 100.5t99.5 41t99.5 -41t42 -100.5t-42 -100.5t-99.5 -41t-99.5 41t-42 100.5z" />
<glyph unicode="&#x22;" horiz-adv-x="724" d="M80 1427h229l-35 -516h-161zM416 1427h229l-33 -516h-163z" />
<glyph unicode="#" horiz-adv-x="1251" d="M59 397v207h230l51 203h-178v207h231l49 200h209l-51 -200h209l51 200h207l-49 -200h176v-207h-227l-52 -203h179v-207h-230l-53 -204h-207l51 204h-209l-53 -204h-207l52 204h-179zM498 604h207l53 203h-209z" />
<glyph unicode="$" horiz-adv-x="1165" d="M47 303l201 125q86 -182 282 -219v442q-193 70 -294 162t-101 260q0 162 111.5 264.5t281.5 114.5v201h146v-207q225 -35 348 -219l-182 -127q-61 96 -168 119v-373q236 -86 334 -186.5t98 -264.5q0 -174 -109.5 -286.5t-320.5 -128.5v-197h-146v199q-172 14 -295 100 t-186 221zM381 1075q0 -66 35.5 -104.5t113.5 -71.5v328q-70 -10 -109.5 -49t-39.5 -103zM672 209q102 10 142 63.5t40 116.5q0 76 -43 120t-139 89v-389z" />
<glyph unicode="%" horiz-adv-x="1538" d="M61 1137q0 131 95.5 224t228.5 93t228.5 -93t95.5 -224t-95.5 -223.5t-228.5 -92.5t-228.5 92.5t-95.5 223.5zM176 0l954 1427h232l-954 -1427h-232zM252 1136.5q0 -59.5 38 -100.5t95 -41q55 0 94 41t39 101q0 57 -40 100t-93 43q-55 0 -94 -42t-39 -101.5zM829 291 q0 131 95.5 223t228.5 92q135 0 229.5 -92t94.5 -223q0 -133 -94.5 -225.5t-229.5 -92.5q-133 0 -228.5 93.5t-95.5 224.5zM1020 290.5q0 -59.5 38 -101.5t95 -42q55 0 95 42t40 102q0 57 -40 99t-95 42q-57 0 -95 -41t-38 -100.5z" />
<glyph unicode="&#x26;" horiz-adv-x="1626" d="M76 457q0 299 284 438q-45 86 -45 176q0 170 116 278.5t306 108.5q170 0 276.5 -95t106.5 -237q0 -90 -49 -141h504v-225h-264v-84q0 -231 -103 -400l265 -276h-318l-102 111q-162 -141 -432 -142q-246 0 -395.5 135.5t-149.5 352.5zM326 457q0 -121 78.5 -191.5 t216.5 -70.5q166 0 243 92q-96 102 -169.5 179t-97.5 101.5t-45.5 47t-29.5 32.5t-35 45q-161 -73 -161 -235zM555 1065q0 -113 139 -260l332 -352q47 82 47 249v58h-287v151q55 12 90 59.5t35 110.5q0 74 -50 122t-128 48q-70 0 -124 -48t-54 -138z" />
<glyph unicode="'" horiz-adv-x="389" d="M80 1427h229l-35 -516h-161z" />
<glyph unicode="(" horiz-adv-x="643" d="M84 633q0 571 467 981l115 -123q-178 -184 -267.5 -390t-89.5 -468q0 -266 88 -470t269 -392l-115 -123q-467 399 -467 985z" />
<glyph unicode=")" horiz-adv-x="643" d="M-23 -229q178 188 267.5 392t89.5 470q0 260 -89 466t-268 392l115 123q465 -410 465 -981q0 -586 -465 -985z" />
<glyph unicode="*" horiz-adv-x="776" d="M66 1141l55 157l201 -90l-21 219h172l-18 -219l202 90l54 -157l-213 -56l147 -165l-139 -101l-119 185l-119 -185l-135 101l148 165z" />
<glyph unicode="+" horiz-adv-x="960" d="M88 604v217h272v295h238v-295h274v-217h-274v-293h-238v293h-272z" />
<glyph unicode="," horiz-adv-x="454" d="M-63 -262l182 489h264l-258 -489h-188z" />
<glyph unicode="-" horiz-adv-x="851" d="M82 446v226h686v-226h-686z" />
<glyph unicode="." horiz-adv-x="417" d="M66 125q0 57 43 98t100 41t99 -41t42 -98q0 -59 -42 -100t-99 -41t-100 41t-43 100z" />
<glyph unicode="/" horiz-adv-x="903" d="M-27 -279l658 1760h223l-659 -1760h-222z" />
<glyph unicode="0" horiz-adv-x="1191" d="M82 715q0 233 6 301q20 188 164.5 313t343.5 125t343.5 -125t164.5 -313q6 -68 6 -301q0 -236 -6 -303q-20 -188 -164.5 -313.5t-343.5 -125.5t-343 125t-165 314q-6 68 -6 303zM332 715q0 -223 6 -277q8 -100 82 -165.5t176 -65.5t176 65.5t82 165.5q6 53 6 277 q0 217 -4 270q-10 102 -85 169t-175 67t-175 -67t-85 -169q-4 -53 -4 -270z" />
<glyph unicode="1" horiz-adv-x="688" d="M72 1196v231h458v-1427h-256v1196h-202z" />
<glyph unicode="2" horiz-adv-x="1077" d="M31 0v166l633 663q88 94 88 195q0 86 -62.5 145.5t-148.5 59.5q-90 0 -153.5 -65.5t-63.5 -159.5h-234q0 186 132 318t321 132q182 0 312 -126t130 -304q0 -182 -168 -358l-414 -435h611v-231h-983z" />
<glyph unicode="3" horiz-adv-x="1155" d="M12 262l203 119q86 -172 326 -172q127 0 211 70.5t84 183.5q0 109 -85 179.5t-231 70.5q-84 0 -158 -23l-83 141l405 365h-543v231h887v-178l-379 -348q10 2 25 2q176 -10 292.5 -134t116.5 -300q0 -215 -149.5 -354.5t-388.5 -139.5q-182 0 -323.5 77t-209.5 210z" />
<glyph unicode="4" horiz-adv-x="1218" d="M96 287v174l475 966h263l-451 -913h444v285h250v-799h-250v287h-731z" />
<glyph unicode="5" horiz-adv-x="1142" d="M37 264l209 119q37 -80 112.5 -127t167.5 -47q119 0 205 78t86 192q0 119 -80 195t-196 76q-135 0 -213 -74l-185 49l133 702h693v-231h-500l-51 -258q61 27 149 27q217 0 360.5 -144.5t143.5 -339.5q0 -219 -157.5 -362.5t-387.5 -143.5q-160 0 -290.5 79t-198.5 210z " />
<glyph unicode="6" horiz-adv-x="1167" d="M61 489q0 76 31 158t63.5 137.5t106.5 165.5q2 4 14 23q92 139 299 454h285l-307 -456q41 8 80 8q176 0 325.5 -138.5t149.5 -346.5q0 -215 -153.5 -363.5t-370.5 -148.5q-215 0 -369 148t-154 359zM315 487q0 -117 78 -194.5t190.5 -77.5t192.5 81t80 191.5t-80 190.5 t-192 80q-115 0 -192 -78t-77 -193z" />
<glyph unicode="7" horiz-adv-x="1120" d="M61 1196v231h998v-194l-606 -1233h-267l596 1196h-721z" />
<glyph unicode="8" horiz-adv-x="1155" d="M70 455q0 127 61.5 222t159.5 146q-121 90 -121 240q0 162 120 276.5t287.5 114.5t287.5 -114.5t120 -276.5q0 -150 -121 -240q98 -49 160.5 -145t62.5 -223q0 -197 -149.5 -338.5t-360 -141.5t-359 141.5t-148.5 338.5zM324 455q0 -102 74.5 -174t179 -72t180.5 72.5 t76 173t-76 173t-180.5 72.5t-179 -72.5t-74.5 -172.5zM406 1063q0 -72 51 -122t121 -50q72 0 122 50t50 122q0 70 -50.5 118t-122 48t-121.5 -48t-50 -118z" />
<glyph unicode="9" horiz-adv-x="1163" d="M66 948q0 209 151.5 356.5t364.5 147.5q221 0 368.5 -145.5t147.5 -354.5q0 -115 -52.5 -220t-168.5 -279l-299 -453h-285l323 479q-35 -12 -81 -12q-174 0 -321.5 134t-147.5 347zM315 952.5q0 -110.5 79 -189.5t188 -79q121 0 194.5 77t73.5 191q0 111 -79 189t-189 78 q-109 0 -188 -78t-79 -188.5z" />
<glyph unicode=":" horiz-adv-x="434" d="M76 242q0 57 42 98t99 41t100 -41t43 -98q0 -59 -43 -100.5t-100 -41.5t-99 41t-42 101zM76 794.5q0 59.5 42 100.5t99 41t100 -41t43 -100.5t-43 -100.5t-100 -41t-99 41t-42 100.5z" />
<glyph unicode=";" horiz-adv-x="499" d="M-55 -262l182 489h264l-258 -489h-188zM111 792.5q0 59.5 42 100.5t101 41q57 0 99 -41t42 -100.5t-42 -100.5t-99 -41q-59 0 -101 41t-42 100.5z" />
<glyph unicode="&#x3c;" horiz-adv-x="911" d="M82 641v176l727 426v-254l-457 -260l457 -260v-252z" />
<glyph unicode="=" horiz-adv-x="1019" d="M90 412v215h838v-215h-838zM90 815v215h838v-215h-838z" />
<glyph unicode="&#x3e;" horiz-adv-x="909" d="M102 217v252l457 260l-457 260v254l727 -426v-176z" />
<glyph unicode="?" horiz-adv-x="862" d="M92 1083v267q137 104 316 104q186 0 285.5 -95t99.5 -218q0 -133 -58.5 -211t-210.5 -170q-63 -37 -95 -66.5t-32 -70.5q0 -80 99 -80q90 0 151 39v-205q-80 -37 -184 -37q-137 0 -222 77t-85 204q0 170 202 299q8 6 37 23.5t37 23.5t29.5 21.5t28 22.5t19.5 21.5 t18 26.5t9.5 28.5t4.5 32.5q0 10 -5.5 25.5t-18.5 34t-44 32t-76 13.5q-160 0 -305 -142zM281 104.5q0 57.5 40.5 97.5t98 40t98.5 -40t41 -97.5t-41 -97.5t-98.5 -40t-98 40t-40.5 97.5z" />
<glyph unicode="@" horiz-adv-x="1644" d="M72 598q0 309 220 528.5t531 219.5q309 0 530.5 -209t221.5 -506q0 -213 -93 -329t-257 -116q-88 0 -150.5 40t-85.5 112q-68 -90 -198 -90q-141 0 -235.5 99t-94.5 247q0 145 94 245.5t236 100.5q119 0 178 -80v66h192v-463q0 -102 78 -103q139 0 139 271 q0 219 -162.5 373.5t-392 154.5t-392.5 -165t-163 -396q0 -229 164 -394t391 -165q129 0 244 63l82 -170q-150 -80 -326 -79q-313 0 -532 219t-219 526zM659 594q0 -70 45.5 -116t113 -46t113.5 46t46 116t-46 117t-113.5 47t-113 -47t-45.5 -117z" />
<glyph unicode="A" horiz-adv-x="1503" d="M47 0l596 1427h217l596 -1427h-270l-117 285h-635l-117 -285h-270zM514 496h475l-237 581z" />
<glyph unicode="B" horiz-adv-x="1257" d="M158 0v1427h516q168 0 283.5 -103t115.5 -261q0 -102 -48 -178t-134 -109q137 -25 212 -121t75 -233q0 -182 -124 -302t-311 -120h-585zM414 231h286q96 0 160 58.5t64 146.5q0 86 -63.5 143.5t-162.5 57.5h-284v-406zM414 852h225q82 0 133 49t51 127q0 72 -51 120 t-131 48h-227v-344z" />
<glyph unicode="C" horiz-adv-x="1458" d="M82 712.5q0 317.5 220 528.5t538 211q340 0 565 -256l-174 -149q-154 174 -391 174q-215 0 -359.5 -145.5t-144.5 -362.5t144.5 -361.5t359.5 -144.5q244 0 395 178l172 -149q-104 -123 -251.5 -192t-315.5 -69q-317 0 -537.5 210t-220.5 527.5z" />
<glyph unicode="D" horiz-adv-x="1501" d="M158 0v1427h510q354 0 551.5 -197.5t197.5 -519t-196.5 -516t-550.5 -194.5h-512zM414 231h237q266 0 388 130.5t122 349.5q0 225 -121.5 355t-390.5 130h-235v-965z" />
<glyph unicode="E" horiz-adv-x="1183" d="M158 0v1427h909v-231h-653v-340h612v-231h-612v-394h667v-231h-923z" />
<glyph unicode="F" horiz-adv-x="1110" d="M158 0v1427h864v-231h-608v-358h555v-232h-555v-606h-256z" />
<glyph unicode="G" horiz-adv-x="1527" d="M82 712.5q0 317.5 220 528.5t538 211q315 0 530 -215l-170 -156q-143 139 -360 140q-215 0 -359.5 -145.5t-144.5 -362.5t144.5 -361.5t359.5 -144.5q203 0 342 123v262h-398v227h639v-575q-102 -125 -254.5 -197t-328.5 -72q-317 0 -537.5 210t-220.5 527.5z" />
<glyph unicode="H" horiz-adv-x="1513" d="M158 0v1427h256v-557h686v557h254v-1427h-254v639h-686v-639h-256z" />
<glyph unicode="I" horiz-adv-x="589" d="M166 0v1427h256v-1427h-256z" />
<glyph unicode="J" horiz-adv-x="702" d="M23 -8v231q49 -16 116 -16q100 0 134 60.5t34 170.5v989h256v-976q0 -82 -6 -140.5t-28.5 -127t-63.5 -109.5t-117 -70t-180 -29q-79 1 -145 17z" />
<glyph unicode="K" horiz-adv-x="1368" d="M158 0v1427h256v-684l604 684h303l-555 -628l571 -799h-299l-444 616l-180 -198v-418h-256z" />
<glyph unicode="L" horiz-adv-x="1046" d="M158 0v1427h256v-1196h567v-231h-823z" />
<glyph unicode="M" horiz-adv-x="1775" d="M158 0v1427h219l512 -800l510 800h217v-1427h-242v967l-485 -754l-490 752v-965h-241z" />
<glyph unicode="N" horiz-adv-x="1544" d="M158 0v1427h225l756 -991v991h247v-1427h-208l-772 1010v-1010h-248z" />
<glyph unicode="O" d="M82 710.5q0 313.5 219 527.5t534.5 214t535.5 -214t220 -527.5t-219 -526.5t-536 -213q-315 0 -534.5 213t-219.5 526.5zM334 711q0 -217 144.5 -362.5t357.5 -145.5t357 146.5t144 361.5t-144 362.5t-357 147.5t-357.5 -147.5t-144.5 -362.5z" />
<glyph unicode="P" horiz-adv-x="1239" d="M158 0v1427h544q182 0 323.5 -129t141.5 -335q0 -199 -140 -331t-325 -132h-288v-500h-256zM414 731h276q86 0 154.5 60.5t68.5 171.5q0 113 -68.5 173t-154.5 60h-276v-465z" />
<glyph unicode="Q" d="M82 713q0 313 220 526t535.5 213t534.5 -213t219 -526q0 -281 -190 -486l139 -168l-172 -143l-143 170q-164 -109 -387 -109q-315 0 -535.5 212.5t-220.5 523.5zM334 713q0 -215 145.5 -359.5t358.5 -144.5q125 0 227 57l-201 238l172 145l203 -239q98 125 98 303 q0 213 -144 360.5t-355 147.5q-213 0 -358.5 -147.5t-145.5 -360.5z" />
<glyph unicode="R" horiz-adv-x="1302" d="M158 0v1427h555q193 0 328 -130t135 -322q0 -139 -72 -248t-189 -158l347 -569h-289l-305 508h-4h-250v-508h-256zM414 737h272q104 0 170 65.5t66 168.5q0 98 -61.5 161.5t-153.5 63.5h-293v-459z" />
<glyph unicode="S" horiz-adv-x="1163" d="M43 301l193 121q111 -217 358 -217q133 0 187.5 58.5t54.5 127.5q0 47 -18.5 82t-63.5 64.5t-87 49t-122 48.5q-98 37 -163 69.5t-126 83t-91 120t-30 159.5q0 172 128 278.5t315 106.5q293 0 440 -231l-182 -125q-82 127 -254 127q-84 0 -139.5 -43t-55.5 -109 q0 -29 6 -50.5t22.5 -39.5t32 -31.5t50 -30t56 -25.5t74 -29.5t83.5 -33.5q203 -82 292 -178t89 -256q0 -188 -128 -305t-372 -117q-199 0 -340 87t-209 239z" />
<glyph unicode="T" horiz-adv-x="1112" d="M41 1196v231h1030v-231h-387v-1196h-256v1196h-387z" />
<glyph unicode="U" horiz-adv-x="1449" d="M145 547v880h256v-854q0 -184 86 -274t238 -90q150 0 236 90t86 274v854h256v-880q0 -274 -162 -422t-416 -148t-417 148t-163 422z" />
<glyph unicode="V" horiz-adv-x="1486" d="M47 1427h270l426 -1050l426 1050h271l-590 -1427h-213z" />
<glyph unicode="W" horiz-adv-x="1941" d="M41 1427h250l289 -958l294 958h193l295 -958l291 958h248l-426 -1427h-203l-301 958l-303 -958h-201z" />
<glyph unicode="X" horiz-adv-x="1370" d="M53 0l473 735l-448 692h284l324 -503l322 503h280l-446 -694l477 -733h-283l-354 547l-354 -547h-275z" />
<glyph unicode="Y" horiz-adv-x="1355" d="M37 1427h276l367 -628l364 628h275l-514 -874v-553h-254v553z" />
<glyph unicode="Z" horiz-adv-x="1314" d="M80 0v168l805 1028h-721v231h1057v-186l-793 -1010h807v-231h-1155z" />
<glyph unicode="[" horiz-adv-x="714" d="M147 -444v1871h564v-219h-322v-1433h322v-219h-564z" />
<glyph unicode="\" horiz-adv-x="903" d="M35 1481h221l659 -1760h-221z" />
<glyph unicode="]" horiz-adv-x="714" d="M4 -225h322v1433h-322v219h561v-1871h-561v219z" />
<glyph unicode="^" horiz-adv-x="1079" d="M33 717l416 710h182l416 -710h-244l-264 465l-265 -465h-241z" />
<glyph unicode="_" horiz-adv-x="761" d="M-2 -174h766v-199h-766v199z" />
<glyph unicode="`" horiz-adv-x="1077" d="M287 1427h280l105 -297h-187z" />
<glyph unicode="a" horiz-adv-x="1259" d="M63 516q0 229 148.5 384t368.5 155q127 0 215 -48.5t114 -123.5v149h246v-1032h-246v150q-27 -76 -114.5 -124.5t-214.5 -48.5q-219 0 -368 155t-149 384zM307 516q0 -135 87 -225t218 -90q133 0 224.5 90t91.5 225t-91.5 225t-224.5 90q-131 0 -218 -90t-87 -225z" />
<glyph unicode="b" horiz-adv-x="1261" d="M109 0v1427h245v-544q27 76 115 124t215 48q219 0 367.5 -155t148.5 -384t-148.5 -384t-367.5 -155q-127 0 -215 48.5t-115 124.5v-150h-245zM336 516q0 -135 91 -225t224 -90q131 0 218 90t87 225t-87 225t-218 90q-133 0 -224 -90t-91 -225z" />
<glyph unicode="c" horiz-adv-x="1079" d="M63 518.5q0 233.5 163 390t399 156.5q248 0 413 -178l-151 -158q-109 113 -262 113q-135 0 -226.5 -92.5t-91.5 -231.5t91 -231t227 -92q154 0 262 112l151 -157q-166 -178 -413 -179q-236 0 -399 157t-163 390.5z" />
<glyph unicode="d" horiz-adv-x="1261" d="M63 516q0 229 148.5 384t368.5 155q127 0 215 -48.5t114 -123.5v544h246v-1427h-246v150q-27 -76 -114.5 -124.5t-214.5 -48.5q-219 0 -368 155t-149 384zM307 516q0 -135 87 -225t218 -90q133 0 224.5 90t91.5 225t-91.5 225t-224.5 90q-131 0 -218 -90t-87 -225z" />
<glyph unicode="e" horiz-adv-x="1169" d="M63 508v8q0 246 153 395.5t388 149.5q225 0 367.5 -149.5t142.5 -370.5q0 -45 -4 -86h-803q6 -123 90 -197t221 -74q160 0 279 119l147 -143q-174 -184 -434 -185q-244 0 -395.5 145.5t-151.5 387.5zM313 627h551q0 92 -76.5 158.5t-183.5 66.5q-115 0 -199 -65.5 t-92 -159.5z" />
<glyph unicode="f" horiz-adv-x="718" d="M55 809v223h168v51q0 119 26.5 188.5t86.5 117.5q81 67 251 67h5q61 0 106 -8v-211q-29 10 -94 10q-70 0 -102.5 -33.5t-32.5 -111.5v-70h195v-223h-195v-809h-246v809h-168z" />
<glyph unicode="g" horiz-adv-x="1259" d="M63 520q0 225 149.5 380t367.5 155q127 0 215 -48.5t114 -123.5v149h246v-860q0 -186 -35 -306t-139 -202q-147 -115 -365 -115q-289 0 -499 150l119 182q169 -112 351 -112h3q143 0 227 61q98 72 98 262v51q-37 -66 -125 -108.5t-210 -42.5q-219 0 -368 151.5 t-149 376.5zM307 520q0 -133 87 -222t218 -89q133 0 224.5 89t91.5 222q0 131 -91.5 221t-224.5 90q-131 0 -218 -89t-87 -222z" />
<glyph unicode="h" horiz-adv-x="1134" d="M109 0v1427h243v-538q35 74 115 119t186 45q178 0 277.5 -111t99.5 -303v-639h-244v604q0 106 -54 168t-152 62q-100 0 -164 -67t-64 -173v-594h-243z" />
<glyph unicode="i" horiz-adv-x="462" d="M84 1298.5q0 61.5 43 103.5t104 42q59 0 102.5 -42t43.5 -103.5t-43.5 -103.5t-102.5 -42q-61 0 -104 42t-43 103.5zM109 0v1032h245v-1032h-245z" />
<glyph unicode="j" horiz-adv-x="456" d="M-92 -213q45 -4 67 -4q70 0 100.5 34.5t30.5 116.5v1098h246v-1120q0 -348 -342 -348q-68 0 -102 6v217zM82 1296.5q0 61.5 43 103.5t104 42q59 0 102.5 -42t43.5 -103.5t-43.5 -103.5t-102.5 -42q-61 0 -104 42t-43 103.5z" />
<glyph unicode="k" horiz-adv-x="1056" d="M109 0v1427h243v-833l381 438h283l-404 -461l447 -571h-279l-325 416l-103 -115v-301h-243z" />
<glyph unicode="l" horiz-adv-x="462" d="M109 0v1427h245v-1427h-245z" />
<glyph unicode="m" horiz-adv-x="1714" d="M109 0v1032h243v-147q33 76 106.5 122t172.5 46q211 0 289 -181q88 180 337 181q170 0 264.5 -111t94.5 -303v-639h-246v604q0 106 -48 168t-136 62q-90 0 -147.5 -67t-57.5 -173v-594h-244v604q0 106 -48 168t-136 62q-86 0 -143.5 -68t-57.5 -172v-594h-243z" />
<glyph unicode="n" horiz-adv-x="1155" d="M109 0v1032h243v-147q37 76 120 122t194 46q184 0 287.5 -111t103.5 -303v-639h-246v604q0 106 -58.5 168t-160.5 62q-104 0 -172 -67t-68 -173v-594h-243z" />
<glyph unicode="o" horiz-adv-x="1253" d="M63 516.5q0 231.5 164 389t399.5 157.5t399.5 -157.5t164 -389t-164 -389.5t-399.5 -158t-399.5 158t-164 389.5zM307 516q0 -137 91 -230t229 -93q135 0 227 93t92 230t-92 230.5t-227 93.5q-137 0 -228.5 -93.5t-91.5 -230.5z" />
<glyph unicode="p" horiz-adv-x="1261" d="M109 -395v1427h245v-149q27 76 115 124t215 48q219 0 367.5 -155t148.5 -384t-148.5 -384t-367.5 -155q-127 0 -215 48.5t-115 124.5v-545h-245zM336 516q0 -135 91 -225t224 -90q131 0 218 90t87 225t-87 225t-218 90q-133 0 -224 -90t-91 -225z" />
<glyph unicode="q" horiz-adv-x="1255" d="M63 516q0 229 148.5 384t368.5 155q127 0 215 -48.5t114 -123.5v149h246v-1427h-246v545q-27 -76 -114.5 -124.5t-214.5 -48.5q-219 0 -368 155t-149 384zM307 516q0 -135 87 -225t218 -90q133 0 224.5 90t91.5 225t-91.5 225t-224.5 90q-131 0 -218 -90t-87 -225z" />
<glyph unicode="r" horiz-adv-x="798" d="M109 0v1032h243v-153q37 82 118 128t189 46q43 0 74 -6v-238q-47 10 -102 10q-127 0 -203 -74.5t-76 -201.5v-543h-243z" />
<glyph unicode="s" horiz-adv-x="921" d="M29 182l157 133q35 -55 107 -92t166 -37q96 0 140 33t44 80q0 18 -7 32.5t-21.5 28t-31 22.5t-45 19.5t-51 18.5t-61.5 20.5t-66 22.5q-125 45 -189.5 112.5t-64.5 178.5q0 143 105.5 226t259.5 83q217 0 334 -152l-137 -145q-68 86 -201 86q-57 0 -91 -25.5t-34 -66.5 q0 -16 5 -29.5t17.5 -24t24.5 -18.5t38 -18.5t47.5 -17.5t59 -20.5t68.5 -23.5q143 -51 210 -123.5t67 -183.5q0 -143 -106.5 -235.5t-317.5 -92.5q-156 0 -266.5 56.5t-159.5 152.5z" />
<glyph unicode="t" horiz-adv-x="688" d="M45 809v223h133v395h246v-395h223v-223h-223v-809h-246v809h-133z" />
<glyph unicode="u" horiz-adv-x="1138" d="M96 410v622h248v-602q0 -117 61.5 -174t164 -57t164 58t61.5 175v600h247v-616q0 -215 -135 -329t-340 -114t-338 113t-133 324z" />
<glyph unicode="v" horiz-adv-x="1120" d="M14 1032h254l293 -700l291 700h254l-442 -1032h-207z" />
<glyph unicode="w" horiz-adv-x="1531" d="M16 1032h232l215 -643l209 643h186l209 -643l215 643h234l-347 -1032h-190l-213 653l-213 -653h-193z" />
<glyph unicode="x" horiz-adv-x="1101" d="M25 0l391 545l-357 487h267l225 -309l223 309h268l-356 -485l391 -547h-264l-262 365l-262 -365h-264z" />
<glyph unicode="y" horiz-adv-x="1157" d="M18 1032h252l301 -753l310 753h252l-607 -1429h-250l166 383z" />
<glyph unicode="z" horiz-adv-x="1064" d="M43 0v152l588 661h-527v219h869v-170l-565 -643h589v-219h-954z" />
<glyph unicode="{" horiz-adv-x="712" d="M51 463v127q47 2 92 24q82 43 82 166v385q0 115 70 188.5t176 73.5h164v-196h-74q-55 0 -80.5 -36t-25.5 -85v-313q0 -150 -82 -215q-43 -37 -99 -58q53 -16 99 -55q82 -66 82 -215v-313q0 -49 25.5 -85t80.5 -36h74v-197h-164q-106 0 -176 73.5t-70 188.5v385 q0 123 -82 166q-20 10 -42.5 17.5t-34.5 9.5h-15z" />
<glyph unicode="|" horiz-adv-x="548" d="M156 -53v1534h235v-1534h-235z" />
<glyph unicode="}" horiz-adv-x="712" d="M78 -180h74q55 0 80.5 35.5t25.5 85.5v313q0 150 82 215q45 39 96 55q-53 20 -96 58q-82 66 -82 215v313q0 49 -25.5 85t-80.5 36h-74v196h164q106 0 175.5 -73.5t69.5 -188.5v-385q0 -123 82 -166q20 -10 43 -16t35 -8h15v-127q-47 -2 -93 -27q-82 -43 -82 -166v-385 q0 -115 -69.5 -188.5t-175.5 -73.5h-164v197z" />
<glyph unicode="~" horiz-adv-x="917" d="M53 606q16 113 81 182.5t165 69.5q76 0 174 -42t145 -42q78 0 105 84l141 -16q-33 -266 -250 -267q-76 0 -175 42t-146 42q-80 0 -96 -71z" />
<glyph unicode="&#xa1;" horiz-adv-x="552" d="M127 -406l43 1068h211l43 -1068h-297zM135 907q0 59 42 100.5t99.5 41.5t99.5 -41t42 -101q0 -57 -42 -98t-99.5 -41t-99.5 41t-42 98z" />
<glyph unicode="&#xa2;" horiz-adv-x="1095" d="M66 721q0 131 51 237.5t134 172t180 101.5t196 36h18l31 159h155l-36 -184q141 -39 247 -147l-149 -152q-55 59 -141 84l-129 -633l10 -2q10 -2 18 -2q143 8 242 107l149 -154q-168 -170 -415 -170q-29 0 -45 4l-37 -178h-156l43 207q-164 57 -265 194.5t-101 319.5z M301 721q0 -98 48 -177t130 -118l125 621h-2q-131 -8 -216 -100.5t-85 -225.5z" />
<glyph unicode="&#xa3;" horiz-adv-x="1214" d="M70 0v188h18q186 0 263 78t77 187q0 53 -43 139h-223v184h121q-86 154 -86 258q0 176 131 300t317 124q182 0 310 -126t128 -306h-225q0 82 -61.5 141.5t-149.5 59.5q-84 0 -144.5 -61.5t-60.5 -147.5t101 -242h327v-184h-229q35 -76 35 -139q0 -170 -103 -238h572v-215 h-1075z" />
<glyph unicode="&#xa4;" horiz-adv-x="1347" d="M106 270l170 152q-86 115 -86 260t86 264l-170 150l152 151l154 -176q119 74 264 74q143 0 262 -74l156 176l151 -151l-170 -150q86 -123 86 -264t-86 -260l170 -152l-151 -149l-156 174q-119 -74 -262 -74q-145 0 -264 74l-154 -174zM403 682q0 -115 80 -195.5 t192.5 -80.5t192.5 80.5t80 195.5t-80 197t-192.5 82t-192.5 -82t-80 -197z" />
<glyph unicode="&#xa5;" horiz-adv-x="1359" d="M37 1427h276l367 -628l367 628h276l-313 -530h223v-211h-346l-78 -133h424v-211h-424v-342h-258v342h-424v211h424l-78 133h-346v211h221z" />
<glyph unicode="&#xa6;" horiz-adv-x="548" d="M156 0v602h235v-602h-235zM156 850v577h235v-577h-235z" />
<glyph unicode="&#xa7;" horiz-adv-x="1107" d="M59 582q0 184 162 284q-88 88 -88 224q0 164 120 266t292 102q197 0 306.5 -115.5t109.5 -289.5h-242q-10 193 -172 192q-68 0 -118 -39t-50 -110q0 -63 33.5 -99t115.5 -82q39 -23 141.5 -73.5t141.5 -73.5q223 -127 223 -317q0 -188 -160 -285q88 -88 89 -223 q0 -166 -121 -267.5t-291 -101.5q-197 0 -306.5 113.5t-109.5 292.5h242q10 -193 172 -193q68 0 117 39t49 111q0 59 -34 95t-114 83q-43 27 -144 77t-138 72q-225 121 -226 318zM297 616q0 -18 4 -33.5t15.5 -31.5t22.5 -28.5t32.5 -29t38 -27.5t47 -28.5t49 -28t57.5 -31 t60 -32.5q55 -29 75 -43q94 33 95 127q0 18 -4.5 33.5t-15.5 32t-22.5 29t-33 28.5t-37.5 27.5t-47 29t-49.5 27.5t-57.5 30.5t-59 32.5q-55 29 -76 43q-94 -35 -94 -127z" />
<glyph unicode="&#xa8;" horiz-adv-x="1161" d="M238 1288q0 53 37.5 90t91 37t92.5 -37t39 -90t-39 -90t-92.5 -37t-91 37t-37.5 90zM662 1288q0 53 38.5 90t92 37t92.5 -37t39 -90t-39 -90t-92.5 -37t-92 37t-38.5 90z" />
<glyph unicode="&#xa9;" horiz-adv-x="1658" d="M76 713q0 303 218 526t535 223q307 0 530.5 -218t223.5 -531q0 -305 -219 -527.5t-535 -222.5q-305 0 -529 217.5t-224 532.5zM238 712.5q0 -243.5 174 -417.5t417.5 -174t416.5 174t173 417.5t-173 417t-416.5 173.5t-417.5 -173.5t-174 -417zM424 719q0 174 121 289.5 t297 115.5q184 0 317 -141l-135 -135q-80 76 -182 76q-86 0 -145.5 -58.5t-59.5 -146.5q0 -90 59.5 -149.5t145.5 -59.5q109 0 182 78l135 -137q-131 -139 -317 -140q-176 0 -297 117t-121 291z" />
<glyph unicode="&#xaa;" horiz-adv-x="940" d="M92 868q0 223 326 248q90 6 125 21.5t35 60.5q0 80 -121 80t-205 -100l-121 102q115 162 324 162q145 0 228 -65.5t83 -180.5v-348q0 -33 18 -45q12 -8 47 -8v-127q-39 -20 -83 -21q-66 0 -95 27q-16 16 -35 55q-72 -88 -249 -88q-123 0 -200 61.5t-77 165.5zM283 889 q0 -80 114 -80q84 0 131 35t47 98v72q-29 -23 -155 -33q-137 -10 -137 -92z" />
<glyph unicode="&#xab;" horiz-adv-x="1040" d="M68 518l237 373h254l-242 -373l242 -373h-254zM483 518l238 373h254l-242 -373l242 -373h-254z" />
<glyph unicode="&#xac;" horiz-adv-x="1243" d="M90 788v216h1061v-603h-238v387h-823z" />
<glyph unicode="&#xad;" horiz-adv-x="851" d="M82 446v226h686v-226h-686z" />
<glyph unicode="&#xae;" horiz-adv-x="831" d="M61 1114.5q0 145.5 103.5 244.5t251 99t252 -99t104.5 -244.5t-105.5 -246t-250.5 -100.5q-147 0 -251 100.5t-104 246zM164 1114q0 -106 72.5 -177t179 -71t178.5 71t72 177q0 109 -72 178.5t-178.5 69.5t-179 -69.5t-72.5 -178.5zM291 948v342h139q51 0 84 -32.5 t33 -79.5q0 -68 -53 -99l79 -131h-100l-65 113h-31v-113h-86zM377 1128h47q41 0 41 46q0 16 -11.5 28t-27.5 12h-49v-86z" />
<glyph unicode="&#xaf;" horiz-adv-x="1177" d="M272 1227v174h631v-174h-631z" />
<glyph unicode="&#xb0;" horiz-adv-x="808" d="M86 1126q0 127 93 218.5t227 91.5q131 0 224 -91.5t93 -218.5q0 -129 -93 -220t-224 -91q-133 0 -226.5 91t-93.5 220zM276 1126q0 -55 38.5 -95t91.5 -40q51 0 88.5 40t37.5 95q0 53 -37.5 92t-88.5 39q-53 0 -91.5 -38.5t-38.5 -92.5z" />
<glyph unicode="&#xb1;" horiz-adv-x="968" d="M90 0v215h789v-215h-789zM90 686v215h275v297h239v-297h275v-215h-275v-293h-239v293h-275z" />
<glyph unicode="&#xb2;" horiz-adv-x="677" d="M66 672v125l323 311q45 45 45 88q0 39 -25.5 65.5t-62.5 26.5q-39 0 -65.5 -32.5t-26.5 -77.5h-164q0 111 75 187.5t181 76.5q104 0 179 -69.5t75 -170.5q0 -90 -78 -174l-196 -192h295v-164h-555z" />
<glyph unicode="&#xb3;" horiz-adv-x="698" d="M33 821l139 84q49 -84 145 -84q57 0 96.5 30t39.5 79t-39 79.5t-101 30.5q-68 0 -106 -20l-49 84l198 162h-254v161h486v-116l-178 -148q29 0 51 -8q76 -23 122 -85t46 -142q0 -115 -85.5 -193t-224.5 -78q-96 0 -172.5 45.5t-113.5 118.5z" />
<glyph unicode="&#xb4;" horiz-adv-x="1077" d="M406 1130l104 297h278l-198 -297h-184z" />
<glyph unicode="&#xb5;" horiz-adv-x="1136" d="M100 -444v1476h236v-596q0 -117 64.5 -182.5t173 -65.5t170 63.5t61.5 182.5v598h235v-616q0 -211 -113.5 -326t-308.5 -115q-178 0 -282 123v-542h-236z" />
<glyph unicode="&#xb6;" horiz-adv-x="1323" d="M45 954q0 197 139.5 335t337.5 138h778v-231h-139v-1196h-250v1196h-157v-1196h-254v485q-190 10 -322.5 145.5t-132.5 323.5z" />
<glyph unicode="&#xb7;" horiz-adv-x="417" d="M66 518q0 57 43 98t100 41t99 -41t42 -98q0 -61 -42 -102t-99 -41t-100 42t-43 101z" />
<glyph unicode="&#xb8;" horiz-adv-x="1067" d="M322 -379l53 109q51 -31 102 -31q35 0 57.5 18.5t22.5 49.5q0 45 -31.5 61t-99.5 16l66 156h147l-43 -94q57 0 96 -41t39 -109q0 -92 -62.5 -139t-170.5 -47q-104 0 -176 51z" />
<glyph unicode="&#xb9;" horiz-adv-x="477" d="M66 1266v161h286v-755h-170v594h-116z" />
<glyph unicode="&#xba;" horiz-adv-x="948" d="M59 1046.5q0 165.5 122 283.5t292 118t293 -118t123 -283.5t-123 -282.5t-293 -117t-292 117t-122 282.5zM276 1046.5q0 -79.5 57.5 -138t139.5 -58.5t139.5 58.5t57.5 138t-58.5 138t-138.5 58.5t-138.5 -58.5t-58.5 -138z" />
<glyph unicode="&#xbb;" horiz-adv-x="1040" d="M66 145l241 373l-241 373h253l238 -373l-238 -373h-253zM481 145l242 373l-242 373h254l238 -373l-238 -373h-254z" />
<glyph unicode="&#xbc;" horiz-adv-x="1456" d="M90 1266v161h287v-755h-170v594h-117zM127 0l881 1427h225l-879 -1427h-227zM770 137v123l248 498h174l-236 -467h224v147h166v-438h-166v137h-410z" />
<glyph unicode="&#xbd;" horiz-adv-x="1476" d="M90 1266v161h287v-755h-170v594h-117zM111 0l880 1427h226l-879 -1427h-227zM840 0v125l323 311q45 45 45 88q0 39 -25.5 65.5t-60.5 26.5q-39 0 -66.5 -32.5t-27.5 -77.5h-164q0 111 75 187.5t181 76.5q104 0 179 -69.5t75 -170.5q0 -94 -76 -174l-196 -192h293v-164 h-555z" />
<glyph unicode="&#xbe;" horiz-adv-x="1585" d="M43 821l141 84q45 -84 146 -84q57 0 96 30t39 79t-39 79.5t-100 30.5q-68 0 -107 -20l-51 84l201 162h-256v161h487v-116l-178 -148q31 0 49 -8q78 -23 124 -85t46 -142q0 -115 -86 -193t-225 -78q-94 0 -171 45.5t-116 118.5zM264 0l881 1427h227l-880 -1427h-228z M901 137v123l248 498h174l-236 -467h224v147h166v-438h-166v137h-410z" />
<glyph unicode="&#xbf;" horiz-adv-x="862" d="M66 -125q0 133 58 211t210 170q63 37 95 66.5t32 70.5q0 80 -99 80q-90 0 -151 -39v205q80 37 184 37q137 0 222 -77t85 -204q0 -170 -202 -299q-8 -6 -37 -23.5t-37 -23.5t-29.5 -21.5t-28 -22.5t-19.5 -21.5t-18 -26.5t-9.5 -28.5t-4.5 -32.5q0 -10 5.5 -25.5t18.5 -34 t44 -32t76 -13.5q160 0 305 141v-266q-137 -104 -315 -104q-186 0 -285.5 95t-99.5 218zM299 911.5q0 57.5 41 97.5t98.5 40t98.5 -40t41 -97.5t-41 -97.5t-98.5 -40t-98.5 40t-41 97.5z" />
<glyph unicode="&#xc0;" horiz-adv-x="1503" d="M47 0l596 1427h217l596 -1427h-270l-117 285h-635l-117 -285h-270zM502 1823h280l105 -297h-187zM514 496h475l-237 581z" />
<glyph unicode="&#xc1;" horiz-adv-x="1503" d="M47 0l596 1427h217l596 -1427h-270l-117 285h-635l-117 -285h-270zM514 496h475l-237 581zM604 1526l105 297h280l-201 -297h-184z" />
<glyph unicode="&#xc2;" horiz-adv-x="1503" d="M47 0l596 1427h217l596 -1427h-270l-117 285h-635l-117 -285h-270zM393 1565l281 247h157l281 -247h-242l-118 118l-119 -118h-240zM514 496h475l-237 581z" />
<glyph unicode="&#xc3;" horiz-adv-x="1503" d="M47 0l596 1427h217l596 -1427h-270l-117 285h-635l-117 -285h-270zM377 1559q14 104 76.5 169.5t158.5 65.5q66 0 152 -41t127 -41q72 0 92 84l141 -18q-31 -248 -237 -248q-68 0 -154 42t-127 42q-72 0 -86 -72zM514 496h475l-237 581z" />
<glyph unicode="&#xc4;" horiz-adv-x="1503" d="M47 0l596 1427h217l596 -1427h-270l-117 285h-635l-117 -285h-270zM377 1602q0 51 39 87.5t92 36.5t92 -35.5t39 -89t-39 -90t-92 -36.5t-92 36.5t-39 90.5zM514 496h475l-237 581zM870 1602q0 51 38 87.5t91.5 36.5t91 -35.5t37.5 -89t-37.5 -90t-91 -36.5t-91.5 36.5 t-38 90.5z" />
<glyph unicode="&#xc5;" horiz-adv-x="1488" d="M47 0l571 1354q-102 59 -102 178q0 90 68.5 155.5t165.5 65.5q92 0 158.5 -65.5t66.5 -155.5q0 -123 -105 -182l572 -1350h-273l-118 285h-615l-119 -285h-270zM514 496h457l-228 553zM662 1532q0 -35 26.5 -60.5t61.5 -25.5q33 0 57 25.5t24 60.5t-24.5 59.5t-56.5 24.5 q-35 0 -61.5 -25.5t-26.5 -58.5z" />
<glyph unicode="&#xc6;" horiz-adv-x="1882" d="M-57 0l1126 1427h698v-231h-510v-340h472v-231h-472v-394h525v-231h-774v285h-545l-223 -285h-297zM629 496h379v489z" />
<glyph unicode="&#xc7;" horiz-adv-x="1458" d="M82 713q0 317 220 528t538 211q340 0 565 -256l-174 -149q-154 174 -391 174q-215 0 -359.5 -145.5t-144.5 -362.5t144.5 -361.5t359.5 -144.5q244 0 395 178l172 -149q-104 -123 -251.5 -192t-315.5 -69h-4l-31 -69q57 0 96 -41t39 -109q0 -92 -62.5 -139t-170.5 -47 q-104 0 -177 51l54 109q51 -31 102 -31q35 0 57.5 18.5t22.5 49.5q0 45 -32 61t-99 16l59 144q-266 47 -439 246.5t-173 478.5z" />
<glyph unicode="&#xc8;" horiz-adv-x="1183" d="M158 0v1427h909v-231h-653v-340h612v-231h-612v-394h667v-231h-923zM375 1823h262l108 -297h-180z" />
<glyph unicode="&#xc9;" horiz-adv-x="1183" d="M158 0v1427h909v-231h-653v-340h612v-231h-612v-394h667v-231h-923zM502 1526l104 297h281l-201 -297h-184z" />
<glyph unicode="&#xca;" horiz-adv-x="1183" d="M158 0v1427h909v-231h-653v-340h612v-231h-612v-394h667v-231h-923zM256 1565l283 247h155l283 -247h-240l-121 118l-118 -118h-242z" />
<glyph unicode="&#xcb;" horiz-adv-x="1183" d="M158 0v1427h909v-231h-653v-340h612v-231h-612v-394h667v-231h-923zM272 1663q0 53 39 91t92.5 38t91 -37t37.5 -92q0 -51 -37.5 -88t-91 -37t-92.5 37t-39 88zM698 1663q0 53 38 91t91.5 38t92 -37t38.5 -92q0 -51 -38.5 -88t-92 -37t-91.5 37t-38 88z" />
<glyph unicode="&#xcc;" horiz-adv-x="589" d="M23 1823h278l107 -297h-187zM166 0v1427h256v-1427h-256z" />
<glyph unicode="&#xcd;" horiz-adv-x="589" d="M166 0v1427h256v-1427h-256zM180 1526l105 297h280l-198 -297h-187z" />
<glyph unicode="&#xce;" horiz-adv-x="589" d="M-66 1565l283 247h156l280 -247h-239l-121 118l-119 -118h-240zM166 0v1427h256v-1427h-256z" />
<glyph unicode="&#xcf;" horiz-adv-x="589" d="M-37 1663q0 53 39 91t92 38t92 -37t39 -92q0 -51 -39 -88t-92 -37t-92 37t-39 88zM166 0v1427h256v-1427h-256zM365 1663q0 53 37.5 91t91.5 38q55 0 93 -37t38 -92q0 -51 -39 -88t-92.5 -37t-91 37t-37.5 88z" />
<glyph unicode="&#xd0;" horiz-adv-x="1509" d="M45 610v232h113v585h510q354 0 551.5 -197.5t197.5 -519t-196.5 -516t-550.5 -194.5h-512v610h-113zM414 231h237q266 0 388 130.5t122 349.5q0 225 -121.5 355t-390.5 130h-235v-354h295v-232h-295v-379z" />
<glyph unicode="&#xd1;" horiz-adv-x="1544" d="M158 0v1427h225l756 -991v991h247v-1427h-208l-772 1010v-1010h-248zM397 1559q14 104 76 169.5t158 65.5q66 0 152.5 -41t125.5 -41q72 0 92 84l144 -18q-33 -248 -240 -248q-68 0 -153.5 42t-126.5 42q-70 0 -86 -72z" />
<glyph unicode="&#xd2;" d="M82 710.5q0 313.5 219 527.5t534.5 214t535.5 -214t220 -527.5t-219 -526.5t-536 -213q-315 0 -534.5 213t-219.5 526.5zM334 711q0 -217 144.5 -362.5t357.5 -145.5t357 146.5t144 361.5t-144 362.5t-357 147.5t-357.5 -147.5t-144.5 -362.5zM555 1823h279l106 -297 h-188z" />
<glyph unicode="&#xd3;" d="M82 710.5q0 313.5 219 527.5t534.5 214t535.5 -214t220 -527.5t-219 -526.5t-536 -213q-315 0 -534.5 213t-219.5 526.5zM334 711q0 -217 144.5 -362.5t357.5 -145.5t357 146.5t144 361.5t-144 362.5t-357 147.5t-357.5 -147.5t-144.5 -362.5zM733 1526l105 297h278 l-198 -297h-185z" />
<glyph unicode="&#xd4;" d="M82 710.5q0 313.5 219 527.5t534.5 214t535.5 -214t220 -527.5t-219 -526.5t-536 -213q-315 0 -534.5 213t-219.5 526.5zM334 711q0 -217 144.5 -362.5t357.5 -145.5t357 146.5t144 361.5t-144 362.5t-357 147.5t-357.5 -147.5t-144.5 -362.5zM483 1565l283 247h154 l282 -247h-239l-121 118l-119 -118h-240z" />
<glyph unicode="&#xd5;" d="M82 710.5q0 313.5 219 527.5t534.5 214t535.5 -214t220 -527.5t-219 -526.5t-536 -213q-315 0 -534.5 213t-219.5 526.5zM334 711q0 -217 144.5 -362.5t357.5 -145.5t357 146.5t144 361.5t-144 362.5t-357 147.5t-357.5 -147.5t-144.5 -362.5zM471 1559 q12 104 74.5 169.5t159.5 65.5q66 0 151.5 -41t126.5 -41q72 0 92 84l142 -18q-31 -248 -236 -248q-68 0 -155 42t-128 42q-72 0 -86 -72z" />
<glyph unicode="&#xd6;" d="M82 710.5q0 313.5 219 527.5t534.5 214t535.5 -214t220 -527.5t-219 -526.5t-536 -213q-315 0 -534.5 213t-219.5 526.5zM334 711q0 -217 144.5 -362.5t357.5 -145.5t357 146.5t144 361.5t-144 362.5t-357 147.5t-357.5 -147.5t-144.5 -362.5zM502 1640q0 53 38 90t91 37 t92 -36.5t39 -90.5q0 -51 -39 -87.5t-92 -36.5t-91 36.5t-38 87.5zM926 1640q0 53 39 90t92 37t91 -36.5t38 -90.5q0 -51 -38 -87.5t-91 -36.5t-92 36.5t-39 87.5z" />
<glyph unicode="&#xd7;" horiz-adv-x="888" d="M78 465l217 219l-217 217l147 148l219 -220l220 220l147 -148l-217 -217l217 -219l-147 -150l-220 220l-219 -220z" />
<glyph unicode="&#xd8;" d="M82 711q0 313 219 527t535 214q195 0 374 -96l125 164l174 -131l-125 -164q207 -217 207 -514q0 -313 -219 -526.5t-536 -213.5q-182 0 -351 82l-120 -159l-170 133l114 151q-227 211 -227 533zM334 711q0 -201 127 -340l604 794q-111 55 -229 56q-213 0 -357.5 -147.5 t-144.5 -362.5zM633 246q92 -43 203 -43q213 0 357 146.5t144 361.5q0 180 -108 315z" />
<glyph unicode="&#xd9;" horiz-adv-x="1449" d="M145 547v880h256v-854q0 -184 86 -274t238 -90q150 0 236 90t86 274v854h256v-880q0 -274 -162 -422t-416 -148t-417 148t-163 422zM455 1823h278l107 -297h-187z" />
<glyph unicode="&#xda;" horiz-adv-x="1449" d="M145 547v880h256v-854q0 -184 86 -274t238 -90q150 0 236 90t86 274v854h256v-880q0 -274 -162 -422t-416 -148t-417 148t-163 422zM625 1526l104 297h279l-199 -297h-184z" />
<glyph unicode="&#xdb;" horiz-adv-x="1449" d="M145 547v880h256v-854q0 -184 86 -274t238 -90q150 0 236 90t86 274v854h256v-880q0 -274 -162 -422t-416 -148t-417 148t-163 422zM367 1565l280 247h156l282 -247h-239l-121 118l-119 -118h-239z" />
<glyph unicode="&#xdc;" horiz-adv-x="1449" d="M145 547v880h256v-854q0 -184 86 -274t238 -90q150 0 236 90t86 274v854h256v-880q0 -274 -162 -422t-416 -148t-417 148t-163 422zM383 1640q0 53 38 90t91 37t92 -36.5t39 -90.5q0 -51 -39 -87.5t-92 -36.5t-91 36.5t-38 87.5zM807 1640q0 53 39 90t92 37t91 -36.5 t38 -90.5q0 -51 -38 -87.5t-91 -36.5t-92 36.5t-39 87.5z" />
<glyph unicode="&#xdd;" horiz-adv-x="1355" d="M37 1427h276l367 -628l364 628h275l-514 -874v-553h-254v553zM575 1526l105 297h281l-201 -297h-185z" />
<glyph unicode="&#xde;" horiz-adv-x="1081" d="M158 0v1427h256v-274h129q213 0 342 -127t129 -319q0 -188 -127 -313.5t-336 -125.5h-137v-268h-256zM414 500h129q102 0 160.5 57t58.5 154q0 94 -58.5 152.5t-162.5 58.5h-127v-422z" />
<glyph unicode="&#xdf;" horiz-adv-x="1187" d="M106 0v1087q0 156 113 263.5t279 107.5q162 0 274.5 -106.5t112.5 -257.5q0 -106 -68 -181q129 -39 221 -154.5t92 -281.5q0 -215 -145 -360.5t-369 -145.5q-55 0 -120 11v231q43 -16 104 -16q117 0 201 81.5t84 198.5q0 113 -84 193t-201 80q-51 0 -104 -17v180 q156 23 155 164q0 63 -43 109.5t-104 46.5q-63 0 -106.5 -47t-43.5 -113v-1073h-248z" />
<glyph unicode="&#xe0;" horiz-adv-x="1259" d="M63 516q0 229 148.5 384t368.5 155q127 0 215 -48.5t114 -123.5v149h246v-1032h-246v150q-27 -76 -114.5 -124.5t-214.5 -48.5q-219 0 -368 155t-149 384zM307 516q0 -135 87 -225t218 -90q133 0 224.5 90t91.5 225t-91.5 225t-224.5 90q-131 0 -218 -90t-87 -225z M367 1427h280l105 -297h-187z" />
<glyph unicode="&#xe1;" horiz-adv-x="1259" d="M63 516q0 229 148.5 384t368.5 155q127 0 215 -48.5t114 -123.5v149h246v-1032h-246v150q-27 -76 -114.5 -124.5t-214.5 -48.5q-219 0 -368 155t-149 384zM307 516q0 -135 87 -225t218 -90q133 0 224.5 90t91.5 225t-91.5 225t-224.5 90q-131 0 -218 -90t-87 -225z M539 1130l104 297h281l-201 -297h-184z" />
<glyph unicode="&#xe2;" horiz-adv-x="1259" d="M63 516q0 229 148.5 384t368.5 155q127 0 215 -48.5t114 -123.5v149h246v-1032h-246v150q-27 -76 -114.5 -124.5t-214.5 -48.5q-219 0 -368 155t-149 384zM301 1159l281 248h155l283 -248h-240l-121 119l-118 -119h-240zM307 516q0 -135 87 -225t218 -90q133 0 224.5 90 t91.5 225t-91.5 225t-224.5 90q-131 0 -218 -90t-87 -225z" />
<glyph unicode="&#xe3;" horiz-adv-x="1259" d="M63 516q0 229 148.5 384t368.5 155q127 0 215 -48.5t114 -123.5v149h246v-1032h-246v150q-27 -76 -114.5 -124.5t-214.5 -48.5q-219 0 -368 155t-149 384zM272 1204q12 102 75 167t159 65q66 0 152.5 -43t127.5 -43q70 0 91 86l143 -19q-31 -246 -238 -246 q-68 0 -154.5 43t-127.5 43q-70 0 -84 -71zM307 516q0 -135 87 -225t218 -90q133 0 224.5 90t91.5 225t-91.5 225t-224.5 90q-131 0 -218 -90t-87 -225z" />
<glyph unicode="&#xe4;" horiz-adv-x="1259" d="M63 516q0 229 148.5 384t368.5 155q127 0 215 -48.5t114 -123.5v149h246v-1032h-246v150q-27 -76 -114.5 -124.5t-214.5 -48.5q-219 0 -368 155t-149 384zM307 516q0 -135 87 -225t218 -90q133 0 224.5 90t91.5 225t-91.5 225t-224.5 90q-131 0 -218 -90t-87 -225z M309 1288q0 53 39 90t92.5 37t92 -37t38.5 -90t-38.5 -90t-92 -37t-92.5 37t-39 90zM735 1288q0 53 39 90t92.5 37t92 -37t38.5 -90t-38.5 -90t-92 -37t-92.5 37t-39 90z" />
<glyph unicode="&#xe5;" horiz-adv-x="1259" d="M63 516q0 229 148.5 384t368.5 155q127 0 215 -48.5t114 -123.5v149h246v-1032h-246v150q-27 -76 -114.5 -124.5t-214.5 -48.5q-219 0 -368 155t-149 384zM307 516q0 -135 87 -225t218 -90q133 0 224.5 90t91.5 225t-91.5 225t-224.5 90q-131 0 -218 -90t-87 -225z M426 1349.5q0 92.5 66.5 157t163 64.5t163 -64.5t66.5 -157t-66.5 -157t-163 -64.5t-163 64.5t-66.5 157zM569 1350q0 -33 26 -58.5t60.5 -25.5t59 24.5t24.5 59t-24.5 60.5t-59 26t-60.5 -26t-26 -60z" />
<glyph unicode="&#xe6;" horiz-adv-x="1798" d="M66 289q0 154 103 244t304 90h102q100 0 138.5 25.5t38.5 76.5q0 127 -199 127q-168 0 -277 -133l-147 125q147 215 422 215q125 0 219 -44t127 -120q137 164 354 164q209 0 349.5 -154.5t140.5 -384.5q0 -35 -4 -65h-768q6 -123 86 -197t213 -74q152 0 266 119l149 -143 q-172 -186 -419.5 -186.5t-384.5 169.5q-125 -172 -428 -172q-182 0 -283.5 87.5t-101.5 230.5zM303 311q0 -125 176 -125q127 0 200 50.5t73 134.5v94q-33 -18 -105 -21l-123 -4q-70 -4 -113.5 -13t-75.5 -38t-32 -78zM977 631h516q-14 98 -80.5 161.5t-161.5 63.5 q-104 0 -181 -63.5t-93 -161.5z" />
<glyph unicode="&#xe7;" horiz-adv-x="1079" d="M63 518q0 233 163 390t399 157q248 0 413 -178l-151 -158q-109 113 -262 113q-135 0 -226.5 -92.5t-91.5 -231.5t91 -231t227 -92q154 0 262 112l151 -157q-158 -168 -393 -179l-29 -65q57 0 96.5 -41t39.5 -109q0 -92 -62.5 -139t-171.5 -47q-104 0 -176 51l53 109 q51 -31 103 -31q35 0 57.5 18.5t22.5 49.5q0 45 -32 61t-100 16l58 140q-193 37 -317 184t-124 350z" />
<glyph unicode="&#xe8;" horiz-adv-x="1169" d="M63 508v8q0 246 153 395.5t388 149.5q225 0 367.5 -149.5t142.5 -370.5q0 -45 -4 -86h-803q6 -123 90 -197t221 -74q160 0 279 119l147 -143q-174 -184 -434 -185q-244 0 -395.5 145.5t-151.5 387.5zM313 627h551q0 92 -76.5 158.5t-183.5 66.5q-115 0 -199 -65.5 t-92 -159.5zM340 1427h278l105 -297h-186z" />
<glyph unicode="&#xe9;" horiz-adv-x="1169" d="M63 508v8q0 246 153 395.5t388 149.5q225 0 367.5 -149.5t142.5 -370.5q0 -45 -4 -86h-803q6 -123 90 -197t221 -74q160 0 279 119l147 -143q-174 -184 -434 -185q-244 0 -395.5 145.5t-151.5 387.5zM313 627h551q0 92 -76.5 158.5t-183.5 66.5q-115 0 -199 -65.5 t-92 -159.5zM496 1130l104 297h279l-199 -297h-184z" />
<glyph unicode="&#xea;" horiz-adv-x="1169" d="M63 508v8q0 246 153 395.5t388 149.5q225 0 367.5 -149.5t142.5 -370.5q0 -45 -4 -86h-803q6 -123 90 -197t221 -74q160 0 279 119l147 -143q-174 -184 -434 -185q-244 0 -395.5 145.5t-151.5 387.5zM258 1159l281 248h155l283 -248h-240l-121 119l-118 -119h-240z M313 627h551q0 92 -76.5 158.5t-183.5 66.5q-115 0 -199 -65.5t-92 -159.5z" />
<glyph unicode="&#xeb;" horiz-adv-x="1169" d="M63 508v8q0 246 153 395.5t388 149.5q225 0 367.5 -149.5t142.5 -370.5q0 -45 -4 -86h-803q6 -123 90 -197t221 -74q160 0 279 119l147 -143q-174 -184 -434 -185q-244 0 -395.5 145.5t-151.5 387.5zM262 1288q0 53 39 90t92 37t92 -37t39 -90t-39 -90t-92 -37t-92 37 t-39 90zM313 627h551q0 92 -76.5 158.5t-183.5 66.5q-115 0 -199 -65.5t-92 -159.5zM688 1288q0 53 39 90t90 37q53 0 92 -37t39 -90t-39 -90t-92 -37q-51 0 -90 37t-39 90z" />
<glyph unicode="&#xec;" horiz-adv-x="462" d="M-39 1427h279l100 -297h-184zM111 0v1032h243v-1032h-243z" />
<glyph unicode="&#xed;" horiz-adv-x="462" d="M111 0v1032h243v-1032h-243zM115 1130l100 297h279l-195 -297h-184z" />
<glyph unicode="&#xee;" horiz-adv-x="518" d="M-53 1159l233 248h158l233 -248h-227l-86 129l-86 -129h-225zM135 0v1032h248v-1032h-248z" />
<glyph unicode="&#xef;" horiz-adv-x="505" d="M-41 1290q0 51 38 88t91 37q51 0 89 -37t38 -88t-38 -87t-89 -36q-53 0 -91 36t-38 87zM131 0v1032h246v-1032h-246zM291 1290q0 51 38 88t89 37t89 -37t38 -88t-38 -87t-89 -36t-89 36t-38 87z" />
<glyph unicode="&#xf0;" horiz-adv-x="1105" d="M63 449q0 197 136.5 331.5t324.5 134.5q184 0 267 -112q-31 82 -91.5 160.5t-124.5 123.5l-133 -133l-145 136l111 114q-106 57 -226 82l60 205q164 -35 317 -127l154 154l145 -138l-135 -135q225 -199 291 -471q31 -129 30 -237q0 -258 -134 -411t-365 -153 q-201 0 -341.5 137.5t-140.5 338.5zM305 449q0 -104 70.5 -176t177 -72t177.5 71.5t71 176.5q0 106 -71 177.5t-177.5 71.5t-177 -71.5t-70.5 -177.5z" />
<glyph unicode="&#xf1;" horiz-adv-x="1155" d="M109 0v1032h243v-147q37 76 120 122t194 46q184 0 287.5 -111t103.5 -303v-639h-246v604q0 106 -58.5 168t-160.5 62q-104 0 -172 -67t-68 -173v-594h-243zM221 1204q12 102 74.5 167t159.5 65q66 0 151.5 -43t126.5 -43q72 0 92 86l142 -19q-31 -246 -236 -246 q-68 0 -155 43t-127 43q-72 0 -87 -71z" />
<glyph unicode="&#xf2;" horiz-adv-x="1253" d="M63 516.5q0 231.5 164 389t399.5 157.5t399.5 -157.5t164 -389t-164 -389.5t-399.5 -158t-399.5 158t-164 389.5zM307 516q0 -137 91 -230t229 -93q135 0 227 93t92 230t-92 230.5t-227 93.5q-137 0 -228.5 -93.5t-91.5 -230.5zM344 1427h281l104 -297h-186z" />
<glyph unicode="&#xf3;" horiz-adv-x="1253" d="M63 516.5q0 231.5 164 389t399.5 157.5t399.5 -157.5t164 -389t-164 -389.5t-399.5 -158t-399.5 158t-164 389.5zM307 516q0 -137 91 -230t229 -93q135 0 227 93t92 230t-92 230.5t-227 93.5q-137 0 -228.5 -93.5t-91.5 -230.5zM530 1130l105 297h278l-198 -297h-185z " />
<glyph unicode="&#xf4;" horiz-adv-x="1253" d="M63 516.5q0 231.5 164 389t399.5 157.5t399.5 -157.5t164 -389t-164 -389.5t-399.5 -158t-399.5 158t-164 389.5zM268 1159l281 248h156l282 -248h-239l-121 119l-119 -119h-240zM307 516q0 -137 91 -230t229 -93q135 0 227 93t92 230t-92 230.5t-227 93.5 q-137 0 -228.5 -93.5t-91.5 -230.5z" />
<glyph unicode="&#xf5;" horiz-adv-x="1253" d="M63 516.5q0 231.5 164 389t399.5 157.5t399.5 -157.5t164 -389t-164 -389.5t-399.5 -158t-399.5 158t-164 389.5zM250 1204q14 102 75.5 167t157.5 65q66 0 153 -43t128 -43q70 0 90 86l143 -19q-31 -246 -237 -246q-68 0 -155 43t-128 43q-70 0 -84 -71zM307 516 q0 -137 91 -230t229 -93q135 0 227 93t92 230t-92 230.5t-227 93.5q-137 0 -228.5 -93.5t-91.5 -230.5z" />
<glyph unicode="&#xf6;" horiz-adv-x="1253" d="M63 516.5q0 231.5 164 389t399.5 157.5t399.5 -157.5t164 -389t-164 -389.5t-399.5 -158t-399.5 158t-164 389.5zM283 1288q0 53 38.5 90t92 37t91.5 -37t38 -90t-38 -90t-91.5 -37t-92 37t-38.5 90zM307 516q0 -137 91 -230t229 -93q135 0 227 93t92 230t-92 230.5 t-227 93.5q-137 0 -228.5 -93.5t-91.5 -230.5zM709 1288q0 53 37.5 90t91 37t92.5 -37t39 -90t-39 -90t-92.5 -37t-91 37t-37.5 90z" />
<glyph unicode="&#xf7;" horiz-adv-x="1009" d="M88 604v217h836v-217h-836zM362 375q0 57 43.5 98t100.5 41t99 -41t42 -98q0 -59 -42 -100.5t-99 -41.5t-100.5 41.5t-43.5 100.5zM362 1053q0 57 43.5 98t100.5 41t99 -41t42 -98q0 -59 -42 -100.5t-99 -41.5t-100.5 41.5t-43.5 100.5z" />
<glyph unicode="&#xf8;" horiz-adv-x="1253" d="M63 516.5q0 231.5 164 389t400 157.5q135 0 250 -57l81 110l150 -108l-82 -105q164 -158 164 -387q0 -231 -164 -389t-399 -158q-133 0 -250 56l-90 -121l-148 108l86 115q-162 158 -162 389.5zM305 516q0 -115 70 -197l360 492q-49 27 -108 27q-137 0 -229.5 -93.5 t-92.5 -228.5zM518 219q47 -25 109 -24q137 0 229 92t92 229q0 111 -67 195z" />
<glyph unicode="&#xf9;" horiz-adv-x="1138" d="M96 410v622h248v-602q0 -117 61.5 -174t164 -57t164 58t61.5 175v600h247v-616q0 -215 -135 -329t-340 -114t-338 113t-133 324zM293 1427h280l105 -297h-184z" />
<glyph unicode="&#xfa;" horiz-adv-x="1138" d="M96 410v622h248v-602q0 -117 61.5 -174t164 -57t164 58t61.5 175v600h247v-616q0 -215 -135 -329t-340 -114t-338 113t-133 324zM455 1130l106 297h279l-199 -297h-186z" />
<glyph unicode="&#xfb;" horiz-adv-x="1138" d="M96 410v622h248v-602q0 -117 61.5 -174t164 -57t164 58t61.5 175v600h247v-616q0 -215 -135 -329t-340 -114t-338 113t-133 324zM213 1159l283 248h155l281 -248h-240l-121 119l-118 -119h-240z" />
<glyph unicode="&#xfc;" horiz-adv-x="1138" d="M96 410v622h248v-602q0 -117 61.5 -174t164 -57t164 58t61.5 175v600h247v-616q0 -215 -135 -329t-340 -114t-338 113t-133 324zM227 1288q0 53 39 90t92.5 37t91 -37t37.5 -90t-37.5 -90t-91 -37t-92.5 37t-39 90zM653 1288q0 53 38 90t91.5 37t92 -37t38.5 -90 t-38.5 -90t-92 -37t-91.5 37t-38 90z" />
<glyph unicode="&#xfd;" horiz-adv-x="1153" d="M18 1032h252l301 -753l310 753h252l-607 -1429h-250l166 383zM459 1130l104 297h281l-199 -297h-186z" />
<glyph unicode="&#xfe;" horiz-adv-x="1261" d="M109 -395v1822h245v-544q27 76 115 124t215 48q219 0 367.5 -155t148.5 -384t-148.5 -384t-367.5 -155q-127 0 -215 48.5t-115 124.5v-545h-245zM336 516q0 -135 91 -225t224 -90q131 0 218 90t87 225t-87 225t-218 90q-133 0 -224 -90t-91 -225z" />
<glyph unicode="&#xff;" horiz-adv-x="1153" d="M18 1032h252l301 -753l310 753h252l-607 -1429h-250l166 383zM227 1288q0 53 39 90t92.5 37t91 -37t37.5 -90t-37.5 -90t-91 -37t-92.5 37t-39 90zM653 1288q0 53 38 90t91.5 37t92 -37t38.5 -90t-38.5 -90t-92 -37t-91.5 37t-38 90z" />
<glyph unicode="&#x152;" horiz-adv-x="2201" d="M82 712.5q0 313.5 219 526.5t533 213q319 0 491 -227v202h762v-231h-510v-340h471v-231h-471v-394h524v-231h-776v205q-166 -229 -491 -230q-313 0 -532.5 212t-219.5 525.5zM338 713q0 -217 146.5 -362.5t359.5 -145.5t359.5 146.5t146.5 361.5t-145.5 361.5 t-360.5 146.5t-360.5 -146.5t-145.5 -361.5z" />
<glyph unicode="&#x153;" horiz-adv-x="2037" d="M63 516.5q0 231.5 164 389t400 157.5q135 0 245.5 -58.5t180.5 -160.5q68 102 177 160.5t249 58.5q223 0 371.5 -155.5t148.5 -387.5q0 -35 -2 -67h-826q6 -123 91.5 -194t224.5 -71q188 0 297 113l149 -149q-182 -182 -456 -183q-297 0 -426 211q-147 -211 -424 -211 q-236 0 -400 158t-164 389.5zM307 516q0 -137 91 -230t229 -93q135 0 227 93t92 230t-92 230.5t-227 93.5q-137 0 -228.5 -93.5t-91.5 -230.5zM1180 627h569q-16 100 -95 164.5t-188 64.5q-111 0 -189.5 -64.5t-96.5 -164.5z" />
<glyph unicode="&#x178;" horiz-adv-x="1355" d="M37 1427h276l367 -628l364 628h275l-514 -874v-553h-254v553zM334 1640q0 51 39 89t92 38t91 -36.5t38 -90t-38 -90.5t-91 -37t-92 37t-39 90zM760 1640q0 51 38 89t91 38t92 -36.5t39 -90t-39 -90.5t-92 -37t-91 37t-38 90z" />
<glyph unicode="&#x2c6;" horiz-adv-x="1165" d="M213 1159l276 248h187l278 -248h-239l-133 129l-129 -129h-240z" />
<glyph unicode="&#x2dc;" horiz-adv-x="1130" d="M193 1231q12 102 74.5 166.5t158.5 64.5q66 0 152 -43t127 -43q72 0 92 86l141 -18q-31 -244 -236 -244q-68 0 -154.5 42t-127.5 42q-70 0 -86 -72z" />
<glyph unicode="&#x2000;" horiz-adv-x="911" />
<glyph unicode="&#x2001;" horiz-adv-x="1823" />
<glyph unicode="&#x2002;" horiz-adv-x="911" />
<glyph unicode="&#x2003;" horiz-adv-x="1823" />
<glyph unicode="&#x2004;" horiz-adv-x="607" />
<glyph unicode="&#x2005;" horiz-adv-x="455" />
<glyph unicode="&#x2006;" horiz-adv-x="303" />
<glyph unicode="&#x2007;" horiz-adv-x="303" />
<glyph unicode="&#x2008;" horiz-adv-x="227" />
<glyph unicode="&#x2009;" horiz-adv-x="364" />
<glyph unicode="&#x200a;" horiz-adv-x="101" />
<glyph unicode="&#x2010;" horiz-adv-x="851" d="M82 446v226h686v-226h-686z" />
<glyph unicode="&#x2011;" horiz-adv-x="851" d="M82 446v226h686v-226h-686z" />
<glyph unicode="&#x2012;" horiz-adv-x="851" d="M82 446v226h686v-226h-686z" />
<glyph unicode="&#x2013;" horiz-adv-x="1044" d="M80 446v226h885v-226h-885z" />
<glyph unicode="&#x2014;" horiz-adv-x="1488" d="M80 446v226h1329v-226h-1329z" />
<glyph unicode="&#x2018;" horiz-adv-x="464" d="M23 922l264 505h188l-188 -505h-264z" />
<glyph unicode="&#x2019;" horiz-adv-x="475" d="M14 922l187 505h264l-264 -505h-187z" />
<glyph unicode="&#x201a;" horiz-adv-x="450" d="M-63 -262l182 489h264l-258 -489h-188z" />
<glyph unicode="&#x201c;" horiz-adv-x="827" d="M23 922l264 505h188l-188 -505h-264zM387 922l262 505h189l-189 -505h-262z" />
<glyph unicode="&#x201d;" horiz-adv-x="837" d="M14 922l187 505h264l-264 -505h-187zM377 922l188 505h262l-264 -505h-186z" />
<glyph unicode="&#x201e;" horiz-adv-x="804" d="M-63 -262l182 489h264l-258 -489h-188zM299 -262l182 489h264l-258 -489h-188z" />
<glyph unicode="&#x2022;" horiz-adv-x="657" d="M115 518q0 90 63.5 151.5t151.5 61.5q86 0 149.5 -61.5t63.5 -151.5q0 -92 -62.5 -153.5t-150.5 -61.5t-151.5 62.5t-63.5 152.5z" />
<glyph unicode="&#x2026;" horiz-adv-x="1245" d="M66 125q0 57 43 98t100 41t99 -41t42 -98q0 -59 -42 -100t-99 -41t-100 41t-43 100zM479 125q0 57 43 98t100.5 41t99.5 -41t42 -98q0 -59 -42 -100t-99.5 -41t-100.5 41t-43 100zM893 125q0 57 42 98t101 41q57 0 99.5 -41t42.5 -98q0 -59 -42 -100t-100 -41 q-59 0 -101 41t-42 100z" />
<glyph unicode="&#x202f;" horiz-adv-x="364" />
<glyph unicode="&#x2039;" horiz-adv-x="624" d="M68 518l237 373h254l-242 -373l242 -373h-254z" />
<glyph unicode="&#x203a;" horiz-adv-x="624" d="M66 145l241 373l-241 373h253l238 -373l-238 -373h-253z" />
<glyph unicode="&#x205f;" horiz-adv-x="455" />
<glyph unicode="&#x20ac;" horiz-adv-x="1546" d="M12 502l68 147h153q-2 20 -2 64q0 29 5 86h-183l66 147h137q70 227 253 366.5t417 139.5q311 0 522 -242l-176 -151q-135 162 -346 162q-133 0 -240.5 -75t-163.5 -200h520l-65 -147h-485q-8 -39 -9 -86q0 -43 6 -64h426l-67 -147h-338q51 -135 162.5 -216t253.5 -81 q217 0 356 166l176 -150q-209 -246 -532 -246q-240 0 -427.5 145.5t-250.5 381.5h-236z" />
<glyph unicode="&#x2122;" horiz-adv-x="1804" d="M47 1210v217h686v-217h-225v-542h-232v542h-229zM831 668v759h107l336 -360l336 360h102v-759h-219v362l-219 -244l-223 244v-362h-220z" />
<glyph unicode="&#x25fc;" horiz-adv-x="1034" d="M0 0v1034h1034v-1034h-1034z" />
</font>
</defs>
</svg>
