<svg xmlns="http://www.w3.org/2000/svg" width="25" height="28" viewBox="0 0 25 28">
  <metadata><?xpacket begin="﻿" id="W5M0MpCehiHzreSzNTczkc9d"?>
<x:xmpmeta xmlns:x="adobe:ns:meta/" x:xmptk="Adobe XMP Core 5.6-c138 79.159824, 2016/09/14-01:09:01        ">
   <rdf:RDF xmlns:rdf="http://www.w3.org/1999/02/22-rdf-syntax-ns#">
      <rdf:Description rdf:about=""/>
   </rdf:RDF>
</x:xmpmeta>
                                                                                                    
                                                                                                    
                                                                                                    
                                                                                                    
                                                                                                    
                                                                                                    
                                                                                                    
                                                                                                    
                                                                                                    
                                                                                                    
                                                                                                    
                                                                                                    
                                                                                                    
                                                                                                    
                                                                                                    
                                                                                                    
                                                                                                    
                                                                                                    
                                                                                                    
                                                                                                    
                           
<?xpacket end="w"?></metadata>
<defs>
    <style>
      .cls-1 {
        fill-rule: evenodd;
      }
    </style>
  </defs>
  <path id="PICTO_CALENDRIER" data-name="PICTO CALENDRIER" class="cls-1" d="M490,204v-2h-5v2h-9v-2h-5v2h-3v26h25V204h-3Zm-4-1h3v3h-3v-3Zm-14,0h3v3h-3v-3Zm20,26H469V210h23v19Zm0-20H469v-4h2v2h5v-2h9v2h5v-2h2v4Zm-1,2H470v17h21V211Zm-17,16h-3v-3h3v3Zm0-4h-3v-3h3v3Zm0-4h-3v-3h3v3Zm0-4h-3v-3h3v3Zm4,12h-3v-3h3v3Zm0-4h-3v-3h3v3Zm0-4h-3v-3h3v3Zm0-4h-3v-3h3v3Zm4,12h-3v-3h3v3Zm0-4h-3v-3h3v3Zm0-4h-3v-3h3v3Zm0-4h-3v-3h3v3Zm4,12h-3v-3h3v3Zm0-4h-3v-3h3v3Zm0-4h-3v-3h3v3Zm0-4h-3v-3h3v3Zm4,12h-3v-3h3v3Zm0-4h-3v-3h3v3Zm0-4h-3v-3h3v3Zm0-4h-3v-3h3v3Z" transform="translate(-468 -202)"/>
</svg>
